<?xml version="1.0" encoding="UTF-8" standalone="no"?><svg xmlns="http://www.w3.org/2000/svg" xmlns:xlink="http://www.w3.org/1999/xlink" contentScriptType="application/ecmascript" contentStyleType="text/css" height="813px" preserveAspectRatio="none" style="width:1025px;height:813px;" version="1.1" viewBox="0 0 1025 813" width="1025px" zoomAndPan="magnify"><defs><filter height="300%" id="fiju11i91tza7" width="300%" x="-1" y="-1"><feGaussianBlur result="blurOut" stdDeviation="2.0"/><feColorMatrix in="blurOut" result="blurOut2" type="matrix" values="0 0 0 0 0 0 0 0 0 0 0 0 0 0 0 0 0 0 .4 0"/><feOffset dx="4.0" dy="4.0" in="blurOut2" result="blurOut3"/><feBlend in="SourceGraphic" in2="blurOut3" mode="normal"/></filter></defs><g><!--class tenant--><rect fill="#FEFECE" filter="url(#fiju11i91tza7)" height="73.6094" id="tenant" style="stroke: #A80036; stroke-width: 1.5;" width="89" x="454" y="8"/><ellipse cx="474.85" cy="24" fill="#ADD1B2" rx="11" ry="11" style="stroke: #A80036; stroke-width: 1.0;"/><path d="M478.9594,30 L471.2406,30 L471.2406,17.6094 L478.9594,17.6094 L478.9594,19.7656 L473.6938,19.7656 L473.6938,22.4375 L478.4594,22.4375 L478.4594,24.5938 L473.6938,24.5938 L473.6938,27.8438 L478.9594,27.8438 L478.9594,30 Z "/><text fill="#000000" font-family="sans-serif" font-size="12" lengthAdjust="spacingAndGlyphs" textLength="44" x="490.15" y="28.1543">Tenant</text><line style="stroke: #A80036; stroke-width: 1.5;" x1="455" x2="542" y1="40" y2="40"/><ellipse cx="465" cy="51.9023" fill="#000000" rx="3" ry="3" style="stroke: #000000; stroke-width: 1.0;"/><text fill="#000000" font-family="sans-serif" font-size="11" lengthAdjust="spacingAndGlyphs" textLength="55" x="474" y="54.2104">id : string</text><line style="stroke: #A80036; stroke-width: 1.0;" x1="455" x2="542" y1="60.8047" y2="60.8047"/><text fill="#000000" font-family="sans-serif" font-size="11" lengthAdjust="spacingAndGlyphs" textLength="77" x="460" y="75.0151">name : string</text><!--class user--><rect fill="#FEFECE" filter="url(#fiju11i91tza7)" height="112.0234" id="user" style="stroke: #A80036; stroke-width: 1.5;" width="147" x="6" y="191"/><ellipse cx="60.75" cy="207" fill="#ADD1B2" rx="11" ry="11" style="stroke: #A80036; stroke-width: 1.0;"/><path d="M64.8594,213 L57.1406,213 L57.1406,200.6094 L64.8594,200.6094 L64.8594,202.7656 L59.5938,202.7656 L59.5938,205.4375 L64.3594,205.4375 L64.3594,207.5938 L59.5938,207.5938 L59.5938,210.8438 L64.8594,210.8438 L64.8594,213 Z "/><text fill="#000000" font-family="sans-serif" font-size="12" lengthAdjust="spacingAndGlyphs" textLength="29" x="81.25" y="211.1543">User</text><line style="stroke: #A80036; stroke-width: 1.5;" x1="7" x2="152" y1="223" y2="223"/><ellipse cx="17" cy="234.9023" fill="#000000" rx="3" ry="3" style="stroke: #000000; stroke-width: 1.0;"/><text fill="#000000" font-family="sans-serif" font-size="11" lengthAdjust="spacingAndGlyphs" textLength="55" x="26" y="237.2104">id : string</text><line style="stroke: #A80036; stroke-width: 1.0;" x1="7" x2="152" y1="243.8047" y2="243.8047"/><text fill="#000000" font-family="sans-serif" font-size="11" lengthAdjust="spacingAndGlyphs" textLength="76" x="12" y="258.0151">email : string</text><text fill="#000000" font-family="sans-serif" font-size="11" lengthAdjust="spacingAndGlyphs" textLength="135" x="12" y="270.8198">password_hash : string</text><text fill="#000000" font-family="sans-serif" font-size="11" lengthAdjust="spacingAndGlyphs" textLength="67" x="12" y="283.6245">role : string</text><text fill="#000000" font-family="sans-serif" font-size="11" lengthAdjust="spacingAndGlyphs" textLength="97" x="12" y="296.4292">tenant_id : string</text><!--class employee--><rect fill="#FEFECE" filter="url(#fiju11i91tza7)" height="188.8516" id="employee" style="stroke: #A80036; stroke-width: 1.5;" width="154" x="397.5" y="412"/><ellipse cx="440.4" cy="428" fill="#ADD1B2" rx="11" ry="11" style="stroke: #A80036; stroke-width: 1.0;"/><path d="M444.5094,434 L436.7906,434 L436.7906,421.6094 L444.5094,421.6094 L444.5094,423.7656 L439.2438,423.7656 L439.2438,426.4375 L444.0094,426.4375 L444.0094,428.5938 L439.2438,428.5938 L439.2438,431.8438 L444.5094,431.8438 L444.5094,434 Z "/><text fill="#000000" font-family="sans-serif" font-size="12" lengthAdjust="spacingAndGlyphs" textLength="60" x="460.6" y="432.1543">Employee</text><line style="stroke: #A80036; stroke-width: 1.5;" x1="398.5" x2="550.5" y1="444" y2="444"/><ellipse cx="408.5" cy="455.9023" fill="#000000" rx="3" ry="3" style="stroke: #000000; stroke-width: 1.0;"/><text fill="#000000" font-family="sans-serif" font-size="11" lengthAdjust="spacingAndGlyphs" textLength="55" x="417.5" y="458.2104">id : string</text><line style="stroke: #A80036; stroke-width: 1.0;" x1="398.5" x2="550.5" y1="464.8047" y2="464.8047"/><text fill="#000000" font-family="sans-serif" font-size="11" lengthAdjust="spacingAndGlyphs" textLength="97" x="403.5" y="479.0151">tenant_id : string</text><text fill="#000000" font-family="sans-serif" font-size="11" lengthAdjust="spacingAndGlyphs" textLength="100" x="403.5" y="491.8198">full_name : string</text><text fill="#000000" font-family="sans-serif" font-size="11" lengthAdjust="spacingAndGlyphs" textLength="76" x="403.5" y="504.6245">email : string</text><text fill="#000000" font-family="sans-serif" font-size="11" lengthAdjust="spacingAndGlyphs" textLength="142" x="403.5" y="517.4292">telegram_chat_id : string</text><text fill="#000000" font-family="sans-serif" font-size="11" lengthAdjust="spacingAndGlyphs" textLength="83" x="403.5" y="530.2339">birthday : date</text><text fill="#000000" font-family="sans-serif" font-size="11" lengthAdjust="spacingAndGlyphs" textLength="97" x="403.5" y="543.0386">hired_date : date</text><text fill="#000000" font-family="sans-serif" font-size="11" lengthAdjust="spacingAndGlyphs" textLength="90" x="403.5" y="555.8433">position : string</text><text fill="#000000" font-family="sans-serif" font-size="11" lengthAdjust="spacingAndGlyphs" textLength="90" x="403.5" y="568.6479">team_id : string</text><text fill="#000000" font-family="sans-serif" font-size="11" lengthAdjust="spacingAndGlyphs" textLength="104" x="403.5" y="581.4526">feelings_log : json</text><text fill="#000000" font-family="sans-serif" font-size="11" lengthAdjust="spacingAndGlyphs" textLength="87" x="403.5" y="594.2573">accounts : json</text><!--class team--><rect fill="#FEFECE" filter="url(#fiju11i91tza7)" height="124.8281" id="team" style="stroke: #A80036; stroke-width: 1.5;" width="126" x="280.5" y="678"/><ellipse cx="322.5" cy="694" fill="#ADD1B2" rx="11" ry="11" style="stroke: #A80036; stroke-width: 1.0;"/><path d="M326.6094,700 L318.8906,700 L318.8906,687.6094 L326.6094,687.6094 L326.6094,689.7656 L321.3438,689.7656 L321.3438,692.4375 L326.1094,692.4375 L326.1094,694.5938 L321.3438,694.5938 L321.3438,697.8438 L326.6094,697.8438 L326.6094,700 Z "/><text fill="#000000" font-family="sans-serif" font-size="12" lengthAdjust="spacingAndGlyphs" textLength="34" x="342.5" y="698.1543">Team</text><line style="stroke: #A80036; stroke-width: 1.5;" x1="281.5" x2="405.5" y1="710" y2="710"/><ellipse cx="291.5" cy="721.9023" fill="#000000" rx="3" ry="3" style="stroke: #000000; stroke-width: 1.0;"/><text fill="#000000" font-family="sans-serif" font-size="11" lengthAdjust="spacingAndGlyphs" textLength="55" x="300.5" y="724.2104">id : string</text><line style="stroke: #A80036; stroke-width: 1.0;" x1="281.5" x2="405.5" y1="730.8047" y2="730.8047"/><text fill="#000000" font-family="sans-serif" font-size="11" lengthAdjust="spacingAndGlyphs" textLength="97" x="286.5" y="745.0151">tenant_id : string</text><text fill="#000000" font-family="sans-serif" font-size="11" lengthAdjust="spacingAndGlyphs" textLength="77" x="286.5" y="757.8198">name : string</text><text fill="#000000" font-family="sans-serif" font-size="11" lengthAdjust="spacingAndGlyphs" textLength="108" x="286.5" y="770.6245">description : string</text><text fill="#000000" font-family="sans-serif" font-size="11" lengthAdjust="spacingAndGlyphs" textLength="107" x="286.5" y="783.4292">member_ids : json</text><text fill="#000000" font-family="sans-serif" font-size="11" lengthAdjust="spacingAndGlyphs" textLength="114" x="286.5" y="796.2339">email_aliases : json</text><!--class job--><rect fill="#FEFECE" filter="url(#fiju11i91tza7)" height="176.0469" id="job" style="stroke: #A80036; stroke-width: 1.5;" width="137" x="430" y="159"/><ellipse cx="484.75" cy="175" fill="#ADD1B2" rx="11" ry="11" style="stroke: #A80036; stroke-width: 1.0;"/><path d="M488.8594,181 L481.1406,181 L481.1406,168.6094 L488.8594,168.6094 L488.8594,170.7656 L483.5938,170.7656 L483.5938,173.4375 L488.3594,173.4375 L488.3594,175.5938 L483.5938,175.5938 L483.5938,178.8438 L488.8594,178.8438 L488.8594,181 Z "/><text fill="#000000" font-family="sans-serif" font-size="12" lengthAdjust="spacingAndGlyphs" textLength="19" x="505.25" y="179.1543">Job</text><line style="stroke: #A80036; stroke-width: 1.5;" x1="431" x2="566" y1="191" y2="191"/><ellipse cx="441" cy="202.9023" fill="#000000" rx="3" ry="3" style="stroke: #000000; stroke-width: 1.0;"/><text fill="#000000" font-family="sans-serif" font-size="11" lengthAdjust="spacingAndGlyphs" textLength="55" x="450" y="205.2104">id : string</text><line style="stroke: #A80036; stroke-width: 1.0;" x1="431" x2="566" y1="211.8047" y2="211.8047"/><text fill="#000000" font-family="sans-serif" font-size="11" lengthAdjust="spacingAndGlyphs" textLength="97" x="436" y="226.0151">tenant_id : string</text><text fill="#000000" font-family="sans-serif" font-size="11" lengthAdjust="spacingAndGlyphs" textLength="86" x="436" y="238.8198">service : string</text><text fill="#000000" font-family="sans-serif" font-size="11" lengthAdjust="spacingAndGlyphs" textLength="79" x="436" y="251.6245">action : string</text><text fill="#000000" font-family="sans-serif" font-size="11" lengthAdjust="spacingAndGlyphs" textLength="117" x="436" y="264.4292">target_name : string</text><text fill="#000000" font-family="sans-serif" font-size="11" lengthAdjust="spacingAndGlyphs" textLength="81" x="436" y="277.2339">status : string</text><text fill="#000000" font-family="sans-serif" font-size="11" lengthAdjust="spacingAndGlyphs" textLength="78" x="436" y="290.0386">result : string</text><text fill="#000000" font-family="sans-serif" font-size="11" lengthAdjust="spacingAndGlyphs" textLength="122" x="436" y="302.8433">created_at : datetime</text><text fill="#000000" font-family="sans-serif" font-size="11" lengthAdjust="spacingAndGlyphs" textLength="125" x="436" y="315.6479">updated_at : datetime</text><text fill="#000000" font-family="sans-serif" font-size="11" lengthAdjust="spacingAndGlyphs" textLength="90" x="436" y="328.4526">metadata : json</text><!--class message--><rect fill="#FEFECE" filter="url(#fiju11i91tza7)" height="150.4375" id="message" style="stroke: #A80036; stroke-width: 1.5;" width="135" x="260" y="172"/><ellipse cx="296.15" cy="188" fill="#ADD1B2" rx="11" ry="11" style="stroke: #A80036; stroke-width: 1.0;"/><path d="M300.2594,194 L292.5406,194 L292.5406,181.6094 L300.2594,181.6094 L300.2594,183.7656 L294.9938,183.7656 L294.9938,186.4375 L299.7594,186.4375 L299.7594,188.5938 L294.9938,188.5938 L294.9938,191.8438 L300.2594,191.8438 L300.2594,194 Z "/><text fill="#000000" font-family="sans-serif" font-size="12" lengthAdjust="spacingAndGlyphs" textLength="56" x="314.85" y="192.1543">Message</text><line style="stroke: #A80036; stroke-width: 1.5;" x1="261" x2="394" y1="204" y2="204"/><ellipse cx="271" cy="215.9023" fill="#000000" rx="3" ry="3" style="stroke: #000000; stroke-width: 1.0;"/><text fill="#000000" font-family="sans-serif" font-size="11" lengthAdjust="spacingAndGlyphs" textLength="55" x="280" y="218.2104">id : string</text><line style="stroke: #A80036; stroke-width: 1.0;" x1="261" x2="394" y1="224.8047" y2="224.8047"/><text fill="#000000" font-family="sans-serif" font-size="11" lengthAdjust="spacingAndGlyphs" textLength="97" x="266" y="239.0151">tenant_id : string</text><text fill="#000000" font-family="sans-serif" font-size="11" lengthAdjust="spacingAndGlyphs" textLength="116" x="266" y="251.8198">employee_id : string</text><text fill="#000000" font-family="sans-serif" font-size="11" lengthAdjust="spacingAndGlyphs" textLength="85" x="266" y="264.6245">sender : string</text><text fill="#000000" font-family="sans-serif" font-size="11" lengthAdjust="spacingAndGlyphs" textLength="89" x="266" y="277.4292">channel : string</text><text fill="#000000" font-family="sans-serif" font-size="11" lengthAdjust="spacingAndGlyphs" textLength="66" x="266" y="290.2339">text : string</text><text fill="#000000" font-family="sans-serif" font-size="11" lengthAdjust="spacingAndGlyphs" textLength="86" x="266" y="303.0386">subject : string</text><text fill="#000000" font-family="sans-serif" font-size="11" lengthAdjust="spacingAndGlyphs" textLength="123" x="266" y="315.8433">timestamp : datetime</text><!--class unassigned_message--><rect fill="#FEFECE" filter="url(#fiju11i91tza7)" height="150.4375" id="unassigned_message" style="stroke: #A80036; stroke-width: 1.5;" width="162" x="774.5" y="172"/><ellipse cx="789.5" cy="188" fill="#ADD1B2" rx="11" ry="11" style="stroke: #A80036; stroke-width: 1.0;"/><path d="M793.6094,194 L785.8906,194 L785.8906,181.6094 L793.6094,181.6094 L793.6094,183.7656 L788.3438,183.7656 L788.3438,186.4375 L793.1094,186.4375 L793.1094,188.5938 L788.3438,188.5938 L788.3438,191.8438 L793.6094,191.8438 L793.6094,194 Z "/><text fill="#000000" font-family="sans-serif" font-size="12" lengthAdjust="spacingAndGlyphs" textLength="130" x="803.5" y="192.1543">UnassignedMessage</text><line style="stroke: #A80036; stroke-width: 1.5;" x1="775.5" x2="935.5" y1="204" y2="204"/><ellipse cx="785.5" cy="215.9023" fill="#000000" rx="3" ry="3" style="stroke: #000000; stroke-width: 1.0;"/><text fill="#000000" font-family="sans-serif" font-size="11" lengthAdjust="spacingAndGlyphs" textLength="55" x="794.5" y="218.2104">id : string</text><line style="stroke: #A80036; stroke-width: 1.0;" x1="775.5" x2="935.5" y1="224.8047" y2="224.8047"/><text fill="#000000" font-family="sans-serif" font-size="11" lengthAdjust="spacingAndGlyphs" textLength="97" x="780.5" y="239.0151">tenant_id : string</text><text fill="#000000" font-family="sans-serif" font-size="11" lengthAdjust="spacingAndGlyphs" textLength="89" x="780.5" y="251.8198">channel : string</text><text fill="#000000" font-family="sans-serif" font-size="11" lengthAdjust="spacingAndGlyphs" textLength="100" x="780.5" y="264.6245">source_id : string</text><text fill="#000000" font-family="sans-serif" font-size="11" lengthAdjust="spacingAndGlyphs" textLength="123" x="780.5" y="277.4292">sender_name : string</text><text fill="#000000" font-family="sans-serif" font-size="11" lengthAdjust="spacingAndGlyphs" textLength="66" x="780.5" y="290.2339">text : string</text><text fill="#000000" font-family="sans-serif" font-size="11" lengthAdjust="spacingAndGlyphs" textLength="86" x="780.5" y="303.0386">subject : string</text><text fill="#000000" font-family="sans-serif" font-size="11" lengthAdjust="spacingAndGlyphs" textLength="123" x="780.5" y="315.8433">timestamp : datetime</text><!--class asset--><rect fill="#FEFECE" filter="url(#fiju11i91tza7)" height="176.0469" id="asset" style="stroke: #A80036; stroke-width: 1.5;" width="137" x="602" y="159"/><ellipse cx="648.75" cy="175" fill="#ADD1B2" rx="11" ry="11" style="stroke: #A80036; stroke-width: 1.0;"/><path d="M652.8594,181 L645.1406,181 L645.1406,168.6094 L652.8594,168.6094 L652.8594,170.7656 L647.5938,170.7656 L647.5938,173.4375 L652.3594,173.4375 L652.3594,175.5938 L647.5938,175.5938 L647.5938,178.8438 L652.8594,178.8438 L652.8594,181 Z "/><text fill="#000000" font-family="sans-serif" font-size="12" lengthAdjust="spacingAndGlyphs" textLength="35" x="669.25" y="179.1543">Asset</text><line style="stroke: #A80036; stroke-width: 1.5;" x1="603" x2="738" y1="191" y2="191"/><ellipse cx="613" cy="202.9023" fill="#000000" rx="3" ry="3" style="stroke: #000000; stroke-width: 1.0;"/><text fill="#000000" font-family="sans-serif" font-size="11" lengthAdjust="spacingAndGlyphs" textLength="55" x="622" y="205.2104">id : string</text><line style="stroke: #A80036; stroke-width: 1.0;" x1="603" x2="738" y1="211.8047" y2="211.8047"/><text fill="#000000" font-family="sans-serif" font-size="11" lengthAdjust="spacingAndGlyphs" textLength="97" x="608" y="226.0151">tenant_id : string</text><text fill="#000000" font-family="sans-serif" font-size="11" lengthAdjust="spacingAndGlyphs" textLength="116" x="608" y="238.8198">employee_id : string</text><text fill="#000000" font-family="sans-serif" font-size="11" lengthAdjust="spacingAndGlyphs" textLength="92" x="608" y="251.6245">provider : string</text><text fill="#000000" font-family="sans-serif" font-size="11" lengthAdjust="spacingAndGlyphs" textLength="107" x="608" y="264.4292">asset_type : string</text><text fill="#000000" font-family="sans-serif" font-size="11" lengthAdjust="spacingAndGlyphs" textLength="95" x="608" y="277.2339">identifier : string</text><text fill="#000000" font-family="sans-serif" font-size="11" lengthAdjust="spacingAndGlyphs" textLength="81" x="608" y="290.0386">status : string</text><text fill="#000000" font-family="sans-serif" font-size="11" lengthAdjust="spacingAndGlyphs" textLength="90" x="608" y="302.8433">metadata : json</text><text fill="#000000" font-family="sans-serif" font-size="11" lengthAdjust="spacingAndGlyphs" textLength="122" x="608" y="315.6479">created_at : datetime</text><text fill="#000000" font-family="sans-serif" font-size="11" lengthAdjust="spacingAndGlyphs" textLength="125" x="608" y="328.4526">updated_at : datetime</text><!--link tenant to user--><path d="M445.61,50.76 C361.3,59.22 201.27,79.15 155.5,112 C131.08,129.53 113.45,157.5 101.36,183.36 " fill="none" id="tenant-user" style="stroke: #A80036; stroke-width: 1.0;"/><line style="stroke: #A80036; stroke-width: 1.0;" x1="101.2235" x2="103.4113" y1="183.6549" y2="193.4126"/><line style="stroke: #A80036; stroke-width: 1.0;" x1="101.2235" x2="92.4687" y1="183.6549" y2="188.4874"/><line style="stroke: #A80036; stroke-width: 1.0;" x1="101.2235" x2="97.94" y1="183.6549" y2="190.95"/><ellipse cx="103.6861" cy="178.1836" fill="none" rx="4" ry="4" style="stroke: #A80036; stroke-width: 1.0;"/><line style="stroke: #A80036; stroke-width: 1.0;" x1="449.3963" x2="450.1824" y1="46.3624" y2="54.3237"/><line style="stroke: #A80036; stroke-width: 1.0;" x1="446.4108" x2="447.1969" y1="46.6572" y2="54.6185"/><line style="stroke: #A80036; stroke-width: 1.0;" x1="445.8087" x2="453.77" y1="50.7361" y2="49.95"/><text fill="#000000" font-family="sans-serif" font-size="13" lengthAdjust="spacingAndGlyphs" textLength="23" x="156.5" y="125.0669">has</text><!--link tenant to employee--><path d="M551.51,51.09 C660.76,62.8 904.9,95.61 954.5,159 C1002.7,220.61 999.61,271.1 954.5,335 C864.81,462.04 671.85,495 559.82,503.19 " fill="none" id="tenant-employee" style="stroke: #A80036; stroke-width: 1.0;"/><line style="stroke: #A80036; stroke-width: 1.0;" x1="559.5416" x2="551.9669" y1="503.2074" y2="509.7362"/><line style="stroke: #A80036; stroke-width: 1.0;" x1="559.5416" x2="551.1531" y1="503.2074" y2="497.7638"/><line style="stroke: #A80036; stroke-width: 1.0;" x1="559.5416" x2="551.56" y1="503.2074" y2="503.75"/><ellipse cx="565.5278" cy="502.8005" fill="none" rx="4" ry="4" style="stroke: #A80036; stroke-width: 1.0;"/><line style="stroke: #A80036; stroke-width: 1.0;" x1="546.8242" x2="547.6528" y1="54.6128" y2="46.6558"/><line style="stroke: #A80036; stroke-width: 1.0;" x1="549.8081" x2="550.6366" y1="54.9235" y2="46.9665"/><line style="stroke: #A80036; stroke-width: 1.0;" x1="551.217" x2="543.26" y1="51.0486" y2="50.22"/><text fill="#000000" font-family="sans-serif" font-size="13" lengthAdjust="spacingAndGlyphs" textLength="23" x="990.5" y="251.5669">has</text><!--link tenant to team--><path d="M445.85,52.38 C384.99,62.87 287.43,90.05 242.5,159 C138.01,319.34 240.18,555.35 302.76,670.8 " fill="none" id="tenant-team" style="stroke: #A80036; stroke-width: 1.0;"/><line style="stroke: #A80036; stroke-width: 1.0;" x1="302.7962" x2="311.902" y1="670.8739" y2="675.0071"/><line style="stroke: #A80036; stroke-width: 1.0;" x1="302.7962" x2="301.378" y1="670.8739" y2="680.7729"/><line style="stroke: #A80036; stroke-width: 1.0;" x1="302.7962" x2="306.64" y1="670.8739" y2="677.89"/><ellipse cx="299.9133" cy="665.6119" fill="none" rx="4" ry="4" style="stroke: #A80036; stroke-width: 1.0;"/><line style="stroke: #A80036; stroke-width: 1.0;" x1="449.2178" x2="450.5307" y1="47.7707" y2="55.6622"/><line style="stroke: #A80036; stroke-width: 1.0;" x1="446.2585" x2="447.5713" y1="48.263" y2="56.1545"/><line style="stroke: #A80036; stroke-width: 1.0;" x1="445.9285" x2="453.82" y1="52.3729" y2="51.06"/><text fill="#000000" font-family="sans-serif" font-size="13" lengthAdjust="spacingAndGlyphs" textLength="23" x="202.5" y="378.0669">has</text><!--link tenant to job--><path d="M498.5,90.31 C498.5,108.25 498.5,129.7 498.5,150.86 " fill="none" id="tenant-job" style="stroke: #A80036; stroke-width: 1.0;"/><line style="stroke: #A80036; stroke-width: 1.0;" x1="498.5" x2="504.5" y1="150.94" y2="158.94"/><line style="stroke: #A80036; stroke-width: 1.0;" x1="498.5" x2="492.5" y1="150.94" y2="158.94"/><line style="stroke: #A80036; stroke-width: 1.0;" x1="498.5" x2="498.5" y1="150.94" y2="158.94"/><ellipse cx="498.5" cy="144.94" fill="none" rx="4" ry="4" style="stroke: #A80036; stroke-width: 1.0;"/><line style="stroke: #A80036; stroke-width: 1.0;" x1="494.5" x2="502.5" y1="86.22" y2="86.22"/><line style="stroke: #A80036; stroke-width: 1.0;" x1="494.5" x2="502.5" y1="89.22" y2="89.22"/><line style="stroke: #A80036; stroke-width: 1.0;" x1="498.5" x2="498.5" y1="90.22" y2="82.22"/><text fill="#000000" font-family="sans-serif" font-size="13" lengthAdjust="spacingAndGlyphs" textLength="23" x="499.5" y="125.0669">has</text><!--link tenant to message--><path d="M462.12,88.55 C442.94,110.98 418.76,139.26 396.21,165.64 " fill="none" id="tenant-message" style="stroke: #A80036; stroke-width: 1.0;"/><line style="stroke: #A80036; stroke-width: 1.0;" x1="396.0169" x2="395.3816" y1="165.8579" y2="175.8377"/><line style="stroke: #A80036; stroke-width: 1.0;" x1="396.0169" x2="386.2584" y1="165.8579" y2="168.0423"/><line style="stroke: #A80036; stroke-width: 1.0;" x1="396.0169" x2="390.82" y1="165.8579" y2="171.94"/><ellipse cx="399.9146" cy="161.2963" fill="none" rx="4" ry="4" style="stroke: #A80036; stroke-width: 1.0;"/><line style="stroke: #A80036; stroke-width: 1.0;" x1="461.89" x2="467.966" y1="82.656" y2="87.86"/><line style="stroke: #A80036; stroke-width: 1.0;" x1="459.9385" x2="466.0146" y1="84.9346" y2="90.1385"/><line style="stroke: #A80036; stroke-width: 1.0;" x1="462.326" x2="467.53" y1="88.2961" y2="82.22"/><text fill="#000000" font-family="sans-serif" font-size="13" lengthAdjust="spacingAndGlyphs" textLength="23" x="439.5" y="125.0669">has</text><!--link tenant to unassigned_message--><path d="M550.73,63.47 C604.58,82.69 689.86,116.58 756.5,159 C760.52,161.56 764.54,164.28 768.53,167.11 " fill="none" id="tenant-unassigned_message" style="stroke: #A80036; stroke-width: 1.0;"/><line style="stroke: #A80036; stroke-width: 1.0;" x1="768.7638" x2="778.7628" y1="167.2695" y2="167.1304"/><line style="stroke: #A80036; stroke-width: 1.0;" x1="768.7638" x2="771.6972" y1="167.2695" y2="176.8296"/><line style="stroke: #A80036; stroke-width: 1.0;" x1="768.7638" x2="775.23" y1="167.2695" y2="171.98"/><ellipse cx="763.9142" cy="163.7367" fill="none" rx="4" ry="4" style="stroke: #A80036; stroke-width: 1.0;"/><line style="stroke: #A80036; stroke-width: 1.0;" x1="545.4451" x2="548.1159" y1="65.8459" y2="58.3049"/><line style="stroke: #A80036; stroke-width: 1.0;" x1="548.273" x2="550.9438" y1="66.8474" y2="59.3064"/><line style="stroke: #A80036; stroke-width: 1.0;" x1="550.551" x2="543.01" y1="63.4108" y2="60.74"/><text fill="#000000" font-family="sans-serif" font-size="13" lengthAdjust="spacingAndGlyphs" textLength="23" x="704.5" y="125.0669">has</text><!--link tenant to asset--><path d="M534.99,88.43 C552.9,109.25 575.15,135.13 596.41,159.85 " fill="none" id="tenant-asset" style="stroke: #A80036; stroke-width: 1.0;"/><line style="stroke: #A80036; stroke-width: 1.0;" x1="596.5707" x2="606.3372" y1="160.0471" y2="162.1955"/><line style="stroke: #A80036; stroke-width: 1.0;" x1="596.5707" x2="597.2428" y1="160.0471" y2="170.0245"/><line style="stroke: #A80036; stroke-width: 1.0;" x1="596.5707" x2="601.79" y1="160.0471" y2="166.11"/><ellipse cx="592.6563" cy="155.4999" fill="none" rx="4" ry="4" style="stroke: #A80036; stroke-width: 1.0;"/><line style="stroke: #A80036; stroke-width: 1.0;" x1="529.2216" x2="535.2906" y1="87.8606" y2="82.6484"/><line style="stroke: #A80036; stroke-width: 1.0;" x1="531.1762" x2="537.2452" y1="90.1365" y2="84.9243"/><line style="stroke: #A80036; stroke-width: 1.0;" x1="534.8622" x2="529.65" y1="88.289" y2="82.22"/><text fill="#000000" font-family="sans-serif" font-size="13" lengthAdjust="spacingAndGlyphs" textLength="23" x="570.5" y="125.0669">has</text><!--link employee to team--><path d="M453.07,609.29 C448.29,622.76 442.5,636.04 435.5,648 C429.05,659.03 420.94,669.66 412.22,679.54 " fill="none" id="employee-team" style="stroke: #A80036; stroke-width: 1.0;"/><line style="stroke: #A80036; stroke-width: 1.0;" x1="412.3704" x2="406.4489" y1="685.3089" y2="679.9296"/><line style="stroke: #A80036; stroke-width: 1.0;" x1="414.3876" x2="408.4661" y1="683.0884" y2="677.7091"/><line style="stroke: #A80036; stroke-width: 1.0;" x1="412.0993" x2="406.72" y1="679.6585" y2="685.58"/><line style="stroke: #A80036; stroke-width: 1.0;" x1="453.1917" x2="450.0776" y1="608.9165" y2="599.4138"/><line style="stroke: #A80036; stroke-width: 1.0;" x1="453.1917" x2="461.4424" y1="608.9165" y2="603.2662"/><line style="stroke: #A80036; stroke-width: 1.0;" x1="453.1917" x2="455.76" y1="608.9165" y2="601.34"/><ellipse cx="451.2655" cy="614.5989" fill="none" rx="4" ry="4" style="stroke: #A80036; stroke-width: 1.0;"/><text fill="#000000" font-family="sans-serif" font-size="13" lengthAdjust="spacingAndGlyphs" textLength="67" x="444.5" y="644.0669">belongs to</text><!--link team to employee--><path d="M329.24,669.75 C329.21,656.47 331.14,642.99 336.5,631 C348.43,604.3 369.31,580.99 391.26,562.02 " fill="none" id="team-employee" style="stroke: #A80036; stroke-width: 1.0;"/><line style="stroke: #A80036; stroke-width: 1.0;" x1="391.3548" x2="393.6016" y1="561.9479" y2="552.2036"/><line style="stroke: #A80036; stroke-width: 1.0;" x1="391.3548" x2="401.3384" y1="561.9479" y2="561.3764"/><line style="stroke: #A80036; stroke-width: 1.0;" x1="391.3548" x2="397.47" y1="561.9479" y2="556.79"/><ellipse cx="386.7684" cy="565.8164" fill="none" rx="4" ry="4" style="stroke: #A80036; stroke-width: 1.0;"/><line style="stroke: #A80036; stroke-width: 1.0;" x1="333.3768" x2="325.3805" y1="673.8605" y2="674.1032"/><line style="stroke: #A80036; stroke-width: 1.0;" x1="333.2858" x2="325.2894" y1="670.8619" y2="671.1046"/><line style="stroke: #A80036; stroke-width: 1.0;" x1="329.2573" x2="329.5" y1="669.9837" y2="677.98"/><text fill="#000000" font-family="sans-serif" font-size="13" lengthAdjust="spacingAndGlyphs" textLength="89" x="337.5" y="644.0669">has members</text><!--link message to employee--><path d="M373.79,329.09 C387.48,353.07 402.63,379.61 416.94,404.68 " fill="none" id="message-employee" style="stroke: #A80036; stroke-width: 1.0;"/><line style="stroke: #A80036; stroke-width: 1.0;" x1="422.4445" x2="415.4941" y1="406.2441" y2="410.2055"/><line style="stroke: #A80036; stroke-width: 1.0;" x1="420.9589" x2="414.0086" y1="403.6377" y2="407.5992"/><line style="stroke: #A80036; stroke-width: 1.0;" x1="416.9886" x2="420.95" y1="404.7497" y2="411.7"/><line style="stroke: #A80036; stroke-width: 1.0;" x1="373.7922" x2="364.6119" y1="329.0742" y2="325.1091"/><line style="stroke: #A80036; stroke-width: 1.0;" x1="373.7922" x2="375.0281" y1="329.0742" y2="319.1509"/><line style="stroke: #A80036; stroke-width: 1.0;" x1="373.7922" x2="369.82" y1="329.0742" y2="322.13"/><ellipse cx="376.7713" cy="334.2823" fill="none" rx="4" ry="4" style="stroke: #A80036; stroke-width: 1.0;"/><text fill="#000000" font-family="sans-serif" font-size="13" lengthAdjust="spacingAndGlyphs" textLength="67" x="402.5" y="378.0669">belongs to</text><!--link asset to employee--><path d="M599.27,341.58 C583.49,362.31 566.72,384.35 550.75,405.32 " fill="none" id="asset-employee" style="stroke: #A80036; stroke-width: 1.0;"/><line style="stroke: #A80036; stroke-width: 1.0;" x1="551.425" x2="545.056" y1="411.036" y2="406.195"/><line style="stroke: #A80036; stroke-width: 1.0;" x1="553.2404" x2="546.8714" y1="408.6476" y2="403.8066"/><line style="stroke: #A80036; stroke-width: 1.0;" x1="550.661" x2="545.82" y1="405.431" y2="411.8"/><line style="stroke: #A80036; stroke-width: 1.0;" x1="599.299" x2="599.3632" y1="341.549" y2="331.5492"/><line style="stroke: #A80036; stroke-width: 1.0;" x1="599.299" x2="608.9168" y1="341.549" y2="338.8108"/><line style="stroke: #A80036; stroke-width: 1.0;" x1="599.299" x2="604.14" y1="341.549" y2="335.18"/><ellipse cx="595.6682" cy="346.3258" fill="none" rx="4" ry="4" style="stroke: #A80036; stroke-width: 1.0;"/><text fill="#000000" font-family="sans-serif" font-size="13" lengthAdjust="spacingAndGlyphs" textLength="67" x="579.5" y="378.0669">belongs to</text><!--
@startuml ERD

entity "Tenant" as tenant {
  *id : string
  - -
  name : string
}

entity "User" as user {
  *id : string
  - -
  email : string
  password_hash : string
  role : string
  tenant_id : string
}

entity "Employee" as employee {
  *id : string
  - -
  tenant_id : string
  full_name : string
  email : string
  telegram_chat_id : string
  birthday : date
  hired_date : date
  position : string
  team_id : string
  feelings_log : json
  accounts : json
}

entity "Team" as team {
  *id : string
  - -
  tenant_id : string
  name : string
  description : string
  member_ids : json
  email_aliases : json
}

entity "Job" as job {
  *id : string
  - -
  tenant_id : string
  service : string
  action : string
  target_name : string
  status : string
  result : string
  created_at : datetime
  updated_at : datetime
  metadata : json
}

entity "Message" as message {
  *id : string
  - -
  tenant_id : string
  employee_id : string
  sender : string
  channel : string
  text : string
  subject : string
  timestamp : datetime
}

entity "UnassignedMessage" as unassigned_message {
  *id : string
  - -
  tenant_id : string
  channel : string
  source_id : string
  sender_name : string
  text : string
  subject : string
  timestamp : datetime
}

entity "Asset" as asset {
  *id : string
  - -
  tenant_id : string
  employee_id : string
  provider : string
  asset_type : string
  identifier : string
  status : string
  metadata : json
  created_at : datetime
  updated_at : datetime
}

tenant ||- -o{ user : "has"
tenant ||- -o{ employee : "has"
tenant ||- -o{ team : "has"
tenant ||- -o{ job : "has"
tenant ||- -o{ message : "has"
tenant ||- -o{ unassigned_message : "has"
tenant ||- -o{ asset : "has"

employee }o- -|| team : "belongs to"

team ||- -o{ employee : "has members"

message }o- -|| employee : "belongs to"

asset }o- -|| employee : "belongs to"

@enduml

PlantUML version 1.2018.13(Mon Nov 26 20:41:51 IRST 2018)
(GPL source distribution)
Java Runtime: OpenJDK Runtime Environment
JVM: OpenJDK 64-Bit Server VM
Java Version: 11.0.27+6-post-Ubuntu-0ubuntu120.04
Operating System: Linux
OS Version: 5.15.0-139-generic
Default Encoding: UTF-8
Language: en
Country: US
--></g></svg>